<?xml version="1.0" standalone="no"?>
<!DOCTYPE svg PUBLIC "-//W3C//DTD SVG 20010904//EN"
 "http://www.w3.org/TR/2001/REC-SVG-20010904/DTD/svg10.dtd">
<svg version="1.0" xmlns="http://www.w3.org/2000/svg"
 width="64.000000pt" height="64.000000pt" viewBox="0 0 64.000000 64.000000"
 preserveAspectRatio="xMidYMid meet">

<g transform="translate(0.000000,64.000000) scale(0.100000,-0.100000)"
fill="#2F74C0" stroke="none">
<path d="M25 615 l-25 -24 0 -271 0 -271 25 -24 24 -25 271 0 271 0 24 25 25
24 0 271 0 271 -25 24 -24 25 -271 0 -271 0 -24 -25z m524 -271 c27 -6 31 -10
31 -40 0 -32 -1 -33 -26 -24 -58 22 -113 -1 -76 -32 9 -9 27 -19 38 -22 38
-12 74 -53 74 -85 0 -48 -37 -83 -96 -88 -71 -7 -104 8 -104 48 0 26 3 30 18
23 9 -4 36 -9 60 -12 37 -4 42 -2 42 17 0 15 -14 28 -50 46 -52 26 -70 49 -70
87 0 62 72 99 159 82z m-174 -34 c0 -22 -5 -25 -37 -28 l-37 -3 -3 -112 -3
-112 -35 0 -35 0 -3 113 -3 112 -39 0 c-38 0 -40 2 -40 30 l0 31 118 -3 117
-3 0 -25z"/>
</g>
</svg>
